<svg width="109" height="124" viewBox="0 0 109 124" fill="none" xmlns="http://www.w3.org/2000/svg">
<path d="M13.4519 24.6919H0.853271L54.8514 123.399L108.529 25.199H95.717" stroke="#EBD1A0" stroke-width="0.533842" stroke-miterlimit="10"/>
<path d="M12.2013 13.134C12.2885 13.6571 11.9689 14.122 11.533 14.2092C11.0972 14.2963 10.6613 13.9476 10.6032 13.4246C10.516 12.9016 10.8357 12.4367 11.2715 12.3495C11.7074 12.2623 12.1432 12.611 12.2013 13.134Z" fill="#EBD1A0"/>
<path d="M14.0043 17.6679C14.1786 18.1619 13.9752 18.6849 13.5394 18.8883C13.1326 19.0917 12.6386 18.8593 12.4933 18.3653C12.319 17.8713 12.5224 17.3483 12.9582 17.1449C13.365 16.9705 13.859 17.203 14.0043 17.6679Z" fill="#EBD1A0"/>
<path d="M33.9956 8.80663C34.17 9.3006 33.9666 9.82363 33.5307 10.027C33.0949 10.2304 32.6299 9.99797 32.4847 9.504C32.3103 9.01003 32.5137 8.487 32.9496 8.2836C33.3564 8.0802 33.8213 8.31266 33.9956 8.80663Z" fill="#EBD1A0"/>
<path d="M15.9511 21.1839C16.1254 21.6778 15.922 22.2009 15.4862 22.4043C15.0794 22.6077 14.5854 22.3752 14.4401 21.8812C14.2658 21.3873 14.4692 20.8642 14.905 20.6608C15.3118 20.4865 15.7767 20.7189 15.9511 21.1839Z" fill="#EBD1A0"/>
<path d="M37.9765 8.92285C38.1508 9.41683 37.9474 9.93986 37.5116 10.1433C37.1048 10.3467 36.6108 10.1142 36.4655 9.62023C36.2912 9.12626 36.4946 8.60323 36.9304 8.39982C37.3372 8.19642 37.8021 8.42888 37.9765 8.92285Z" fill="#EBD1A0"/>
<path d="M25.8596 8.80663C26.034 9.3006 25.8306 9.82363 25.3947 10.027C24.9588 10.2304 24.4939 9.99797 24.3486 9.504C24.1743 9.01003 24.3777 8.487 24.8136 8.2836C25.2204 8.0802 25.7143 8.31266 25.8596 8.80663Z" fill="#EBD1A0"/>
<path d="M14.0043 8.80663C14.1786 9.3006 13.9752 9.82363 13.5394 10.027C13.1326 10.2304 12.6386 9.99797 12.4933 9.504C12.319 9.01003 12.5224 8.487 12.9582 8.2836C13.365 8.0802 13.8299 8.31266 14.0043 8.80663Z" fill="#EBD1A0"/>
<path d="M18.0142 8.80663C18.1885 9.3006 17.9851 9.82363 17.5492 10.027C17.1424 10.2304 16.6485 9.99797 16.5032 9.504C16.3288 9.01003 16.5322 8.487 16.9681 8.2836C17.3749 8.0802 17.8689 8.31266 18.0142 8.80663Z" fill="#EBD1A0"/>
<path d="M18.0138 25.1066C18.1881 25.6005 17.9847 26.1236 17.5488 26.327C17.142 26.5304 16.6481 26.2979 16.5028 25.8039C16.3575 25.31 16.5318 24.7869 16.9677 24.5835C17.3745 24.4092 17.8685 24.6416 18.0138 25.1066Z" fill="#EBD1A0"/>
<path d="M22.0527 33.4172C22.227 33.9112 22.0236 34.4342 21.5878 34.6376C21.181 34.841 20.687 34.6085 20.5417 34.1146C20.3964 33.6206 20.5708 33.0976 21.0066 32.8942C21.4134 32.6908 21.8784 32.9523 22.0527 33.4172Z" fill="#EBD1A0"/>
<path d="M26.6732 42.1934C26.8476 42.6874 26.6442 43.2104 26.2083 43.4138C25.7724 43.6172 25.3075 43.3847 25.1622 42.8907C24.9879 42.3968 25.1913 41.8737 25.6272 41.6703C26.034 41.4669 26.4989 41.6994 26.6732 42.1934Z" fill="#EBD1A0"/>
<path d="M20.0187 29.4082C20.193 29.9022 19.9896 30.4252 19.5538 30.6286C19.147 30.832 18.653 30.5995 18.5077 30.1056C18.3624 29.6116 18.5368 29.0886 18.9726 28.8852C19.3794 28.6818 19.8444 28.9142 20.0187 29.4082Z" fill="#EBD1A0"/>
<path d="M24.2614 37.7174C24.4358 38.2114 24.2324 38.7344 23.7965 38.9378C23.3897 39.1412 22.8958 38.9087 22.7505 38.4148C22.5761 37.9208 22.7795 37.3978 23.2154 37.1944C23.6222 37.02 24.0871 37.2525 24.2614 37.7174Z" fill="#EBD1A0"/>
<path d="M28.5619 46.3195C28.7363 46.8135 28.5329 47.3365 28.097 47.5399C27.6611 47.7433 27.1962 47.5109 27.0509 47.0169C26.8766 46.5229 27.08 45.9999 27.5159 45.7965C27.9227 45.5931 28.3876 45.8255 28.5619 46.3195Z" fill="#EBD1A0"/>
<path d="M32.4846 54.3102C32.659 54.8042 32.4556 55.3272 32.0197 55.5306C31.6129 55.734 31.119 55.5016 30.9737 55.0076C30.7993 54.5136 31.0027 53.9906 31.4386 53.7872C31.8454 53.5838 32.3103 53.8163 32.4846 54.3102Z" fill="#EBD1A0"/>
<path d="M36.5236 62.3881C36.698 62.8821 36.4946 63.4051 36.0587 63.6085C35.6519 63.8119 35.1579 63.5795 35.0126 63.0855C34.8383 62.5915 35.0417 62.0685 35.4776 61.8651C35.8844 61.6617 36.3783 61.8942 36.5236 62.3881Z" fill="#EBD1A0"/>
<path d="M40.8241 70.8429C40.9984 71.3369 40.795 71.8599 40.3591 72.0633C39.9523 72.2667 39.4584 72.0342 39.3131 71.5403C39.1387 71.0463 39.3421 70.5233 39.778 70.3199C40.2139 70.1165 40.6497 70.378 40.8241 70.8429Z" fill="#EBD1A0"/>
<path d="M99.1129 13.1062C99.2872 13.6002 99.0838 14.1232 98.6479 14.3266C98.2411 14.53 97.7472 14.2685 97.6019 13.8036C97.4275 13.3096 97.6309 12.7866 98.0668 12.5832C98.5027 12.3798 98.9385 12.6413 99.1129 13.1062Z" fill="#EBD1A0"/>
<path d="M94.6667 22.2311C94.841 22.725 94.6376 23.2481 94.2018 23.4515C93.795 23.6549 93.301 23.3934 93.1557 22.9284C93.0104 22.4635 93.1848 21.9114 93.6206 21.708C94.0274 21.5046 94.5214 21.7371 94.6667 22.2311Z" fill="#EBD1A0"/>
<path d="M90.6863 30.4243C90.8606 30.9183 90.6572 31.4413 90.2214 31.6447C89.8146 31.8481 89.3206 31.5866 89.1753 31.1217C89.001 30.6277 89.2044 30.1047 89.6402 29.9013C90.047 29.6979 90.5119 29.9594 90.6863 30.4243Z" fill="#EBD1A0"/>
<path d="M88.4779 34.4932C88.6523 34.9872 88.4488 35.5102 88.013 35.7136C87.6062 35.917 87.1122 35.6555 86.9669 35.1906C86.7926 34.6966 86.996 34.1736 87.4318 33.9702C87.8386 33.7668 88.3036 33.9992 88.4779 34.4932Z" fill="#EBD1A0"/>
<path d="M84.3809 43.2385C84.5552 43.7325 84.3518 44.2555 83.9159 44.4589C83.5091 44.6623 83.0152 44.4008 82.8699 43.9359C82.6955 43.4419 82.8989 42.9189 83.3348 42.7155C83.7416 42.5121 84.2065 42.7736 84.3809 43.2385Z" fill="#EBD1A0"/>
<path d="M80.2834 51.1418C80.4577 51.6358 80.2543 52.1588 79.8185 52.3622C79.3826 52.5656 78.9177 52.3041 78.7724 51.8392C78.6271 51.3743 78.8015 50.8222 79.2373 50.6188C79.6441 50.4445 80.109 50.6769 80.2834 51.1418Z" fill="#EBD1A0"/>
<path d="M75.7218 59.773C75.8961 60.267 75.6927 60.79 75.2569 60.9934C74.8501 61.1968 74.3561 60.9643 74.2108 60.4704C74.0365 59.9764 74.2399 59.4534 74.6757 59.25C75.0825 59.0466 75.5765 59.279 75.7218 59.773Z" fill="#EBD1A0"/>
<path d="M71.741 67.909C71.9153 68.403 71.7119 68.926 71.276 69.1294C70.8692 69.3328 70.3753 69.1004 70.23 68.6064C70.0556 68.1124 70.259 67.5894 70.6949 67.386C71.1308 67.1826 71.5666 67.415 71.741 67.909Z" fill="#EBD1A0"/>
<path d="M67.7892 75.9869C67.9635 76.4809 67.7601 77.0039 67.3243 77.2073C66.9175 77.4107 66.4235 77.1783 66.2782 76.6843C66.1039 76.1903 66.3073 75.6673 66.7431 75.4639C67.179 75.2605 67.6439 75.493 67.7892 75.9869Z" fill="#EBD1A0"/>
<path d="M65.5514 80.4614C65.6386 80.9554 65.348 81.4784 64.9122 81.5656C64.4763 81.6818 64.0405 81.3331 63.9533 80.8391C63.8661 80.3452 64.1567 79.8221 64.5926 79.7349C65.0284 79.6187 65.4643 79.9383 65.5514 80.4614Z" fill="#EBD1A0"/>
<path d="M63.2272 84.4426C63.4015 84.9366 63.1981 85.4596 62.7623 85.663C62.3555 85.8664 61.8615 85.6339 61.7162 85.14C61.5419 84.646 61.7453 84.123 62.1811 83.9196C62.5879 83.7162 63.0819 83.9486 63.2272 84.4426Z" fill="#EBD1A0"/>
<path d="M61.3094 88.6268C61.4838 89.1208 61.2804 89.6438 60.8445 89.8472C60.4086 90.0506 59.9437 89.8182 59.7984 89.3242C59.6241 88.8302 59.8275 88.3072 60.2634 88.1038C60.6992 87.9004 61.1351 88.1328 61.3094 88.6268Z" fill="#EBD1A0"/>
<path d="M59.4207 92.4043C59.595 92.8982 59.3916 93.4213 58.9558 93.6247C58.549 93.8281 58.055 93.5956 57.9097 93.1016C57.7354 92.6076 57.9388 92.0846 58.3746 91.8812C58.8105 91.6778 59.2754 91.9103 59.4207 92.4043Z" fill="#EBD1A0"/>
<path d="M57.7342 95.9471C58.0248 96.3539 57.9667 96.935 57.618 97.2547C57.2693 97.5743 56.7463 97.5162 56.4848 97.1094C56.1942 96.7026 56.2523 96.1214 56.601 95.8018C56.9497 95.4822 57.4436 95.5403 57.7342 95.9471Z" fill="#EBD1A0"/>
<path d="M73.6006 63.9273C73.775 64.4212 73.5716 64.9443 73.1357 65.1477C72.7289 65.3511 72.2349 65.1186 72.0896 64.6246C71.9153 64.1307 72.1187 63.6076 72.5546 63.4042C72.9904 63.2008 73.4553 63.4624 73.6006 63.9273Z" fill="#EBD1A0"/>
<path d="M69.9685 71.8027C70.1428 72.2967 69.9394 72.8197 69.5036 73.0231C69.0968 73.2265 68.6028 72.994 68.4575 72.5001C68.2832 72.0061 68.4866 71.4831 68.9224 71.2797C69.3583 71.0763 69.8232 71.3087 69.9685 71.8027Z" fill="#EBD1A0"/>
<path d="M82.1432 47.5395C82.0851 48.0625 81.6783 48.4112 81.2134 48.3531C80.7775 48.295 80.4579 47.801 80.516 47.307C80.5741 46.784 80.9809 46.4353 81.4458 46.4934C81.8817 46.5515 82.2013 47.0455 82.1432 47.5395Z" fill="#EBD1A0"/>
<path d="M78.075 55.7038C78.2493 56.1978 78.0459 56.7208 77.6101 56.9242C77.1742 57.1276 76.7093 56.8661 76.564 56.4012C76.4187 55.9363 76.5931 55.3842 77.0289 55.1808C77.4357 55.0065 77.9007 55.2389 78.075 55.7038Z" fill="#EBD1A0"/>
<path d="M86.4144 39.0831C86.5888 39.5771 86.3854 40.1001 85.9495 40.3035C85.5427 40.5069 85.0488 40.2454 84.9035 39.7805C84.7582 39.3156 84.9325 38.7635 85.3684 38.5601C85.7752 38.3857 86.2401 38.6182 86.4144 39.0831Z" fill="#EBD1A0"/>
<path d="M43.0905 75.0861C43.2649 75.5801 43.0615 76.1031 42.6256 76.3065C42.2188 76.5099 41.7249 76.2775 41.5796 75.7835C41.4052 75.2895 41.6086 74.7665 42.0445 74.5631C42.4803 74.3597 42.9162 74.5922 43.0905 75.0861Z" fill="#EBD1A0"/>
<path d="M47.391 83.8024C47.5653 84.2964 47.3619 84.8194 46.9261 85.0228C46.5193 85.2262 46.0253 84.9938 45.88 84.4998C45.7057 84.0058 45.9091 83.4828 46.3449 83.2794C46.7808 83.076 47.2457 83.3375 47.391 83.8024Z" fill="#EBD1A0"/>
<path d="M55.527 99.7557C55.7014 100.25 55.498 100.773 55.0621 100.976C54.6553 101.18 54.1613 100.947 54.0161 100.453C53.8417 99.9591 54.0451 99.4361 54.481 99.2327C54.9168 99.0293 55.3527 99.2618 55.527 99.7557Z" fill="#EBD1A0"/>
<path d="M51.3138 92.4043C51.4881 92.8982 51.2847 93.4213 50.8488 93.6247C50.442 93.8281 49.9481 93.5956 49.8028 93.1016C49.6284 92.6076 49.8318 92.0846 50.2677 91.8812C50.7036 91.6778 51.1394 91.9103 51.3138 92.4043Z" fill="#EBD1A0"/>
<path d="M45.1536 79.3576C45.3279 79.8515 45.1245 80.3746 44.6887 80.578C44.2528 80.7814 43.7879 80.5489 43.6426 80.0549C43.4683 79.561 43.6717 79.0379 44.1075 78.8345C44.5143 78.6311 44.9792 78.8636 45.1536 79.3576Z" fill="#EBD1A0"/>
<path d="M49.4541 88.22C49.6284 88.714 49.425 89.237 48.9892 89.4404C48.5824 89.6438 48.0884 89.4114 47.9431 88.9174C47.7688 88.4234 47.9722 87.9004 48.408 87.697C48.8148 87.4936 49.2797 87.726 49.4541 88.22Z" fill="#EBD1A0"/>
<path d="M53.3478 96.1808C53.5221 96.6747 53.3187 97.1978 52.8828 97.4012C52.476 97.6046 51.9821 97.3721 51.8368 96.8781C51.6624 96.3842 51.8658 95.8612 52.3017 95.6577C52.7375 95.4543 53.1734 95.7159 53.3478 96.1808Z" fill="#EBD1A0"/>
<path d="M96.846 17.6972C97.0203 18.1912 96.8169 18.7142 96.3811 18.9176C95.9452 19.121 95.4803 18.8595 95.335 18.3946C95.1897 17.9297 95.3641 17.3776 95.7999 17.1742C96.2358 16.9708 96.6717 17.2323 96.846 17.6972Z" fill="#EBD1A0"/>
<path d="M92.573 26.3567C92.8345 26.7926 92.7473 27.3737 92.3695 27.6643C91.9918 27.9549 91.4978 27.8677 91.2363 27.4319C90.9748 26.996 91.062 26.4149 91.4397 26.1243C91.8175 25.8628 92.3114 25.9499 92.573 26.3567Z" fill="#EBD1A0"/>
<path d="M38.5286 66.2818C38.7029 66.7758 38.4995 67.2988 38.0636 67.5022C37.6568 67.7056 37.1629 67.4732 37.0176 66.9792C36.8432 66.4852 37.0466 65.9622 37.4825 65.7588C37.9184 65.5554 38.3833 65.7878 38.5286 66.2818Z" fill="#EBD1A0"/>
<path d="M30.5378 50.3573C30.7122 50.8513 30.5088 51.3743 30.0729 51.5777C29.6661 51.7811 29.1721 51.5486 29.0268 51.0547C28.8525 50.5607 29.0559 50.0377 29.4918 49.8343C29.8986 49.6599 30.3635 49.8924 30.5378 50.3573Z" fill="#EBD1A0"/>
<path d="M34.5187 58.4945C34.693 58.9885 34.4896 59.5115 34.0538 59.7149C33.647 59.9183 33.153 59.6858 33.0077 59.1919C32.8334 58.6979 33.0368 58.1748 33.4726 57.9714C33.9085 57.768 34.3443 58.0005 34.5187 58.4945Z" fill="#EBD1A0"/>
<path d="M10.1396 8.80663C10.314 9.3006 10.1106 9.82363 9.67473 10.027C9.26793 10.2304 8.77396 9.99797 8.62867 9.504C8.45433 9.01003 8.65773 8.487 9.09359 8.2836C9.50039 8.0802 9.96531 8.31266 10.1396 8.80663Z" fill="#EBD1A0"/>
<path d="M29.9857 8.80663C30.1601 9.3006 29.9567 9.82363 29.5208 10.027C29.114 10.2304 28.62 9.99797 28.4747 9.504C28.3004 9.01003 28.5038 8.487 28.9397 8.2836C29.3465 8.0802 29.8404 8.31266 29.9857 8.80663Z" fill="#EBD1A0"/>
<path d="M21.9369 8.80663C22.1112 9.3006 21.9078 9.82363 21.472 10.027C21.0652 10.2304 20.5712 9.99797 20.4259 9.504C20.2516 9.01003 20.455 8.487 20.8908 8.2836C21.2976 8.0802 21.7625 8.31266 21.9369 8.80663Z" fill="#EBD1A0"/>
<path d="M96.9045 9.01003C97.0789 9.504 96.8755 10.027 96.4396 10.2304C96.0328 10.4338 95.5388 10.2014 95.3935 9.7074C95.2192 9.21343 95.4226 8.6904 95.8585 8.487C96.2653 8.2836 96.7592 8.51606 96.9045 9.01003Z" fill="#EBD1A0"/>
<path d="M100.245 10.5491C100.694 10.5491 101.058 10.1328 101.058 9.6193C101.058 9.10577 100.694 8.68947 100.245 8.68947C99.7955 8.68947 99.4312 9.10577 99.4312 9.6193C99.4312 10.1328 99.7955 10.5491 100.245 10.5491Z" fill="#EBD1A0"/>
<path d="M88.7975 9.01003C88.9719 9.504 88.7685 10.027 88.3326 10.2304C87.9258 10.4338 87.4319 10.2014 87.2866 9.7074C87.1122 9.21343 87.3156 8.6904 87.7515 8.487C88.1583 8.2836 88.6232 8.51606 88.7975 9.01003Z" fill="#EBD1A0"/>
<path d="M76.9131 9.01003C77.0875 9.504 76.8841 10.027 76.4482 10.2304C76.0414 10.4338 75.5475 10.2014 75.4022 9.7074C75.2278 9.21343 75.4312 8.6904 75.8671 8.487C76.2739 8.2836 76.7388 8.51606 76.9131 9.01003Z" fill="#EBD1A0"/>
<path d="M80.9521 9.01003C81.1264 9.504 80.923 10.027 80.4872 10.2304C80.0804 10.4338 79.5864 10.2014 79.4411 9.7074C79.2668 9.21343 79.4702 8.6904 79.906 8.487C80.3128 8.2836 80.7777 8.51606 80.9521 9.01003Z" fill="#EBD1A0"/>
<path d="M73.0776 9.01003C73.2519 9.504 73.0485 10.027 72.6127 10.2304C72.2059 10.4338 71.7119 10.2014 71.5666 9.7074C71.3923 9.21343 71.5957 8.6904 72.0315 8.487C72.4383 8.2836 72.9032 8.51606 73.0776 9.01003Z" fill="#EBD1A0"/>
<path d="M92.9237 9.01003C93.098 9.504 92.8946 10.027 92.4588 10.2304C92.052 10.4338 91.558 10.2014 91.4127 9.7074C91.2384 9.21343 91.4418 8.6904 91.8776 8.487C92.2844 8.2836 92.7493 8.51606 92.9237 9.01003Z" fill="#EBD1A0"/>
<path d="M84.8458 9.01003C85.0201 9.504 84.8167 10.027 84.3808 10.2304C83.974 10.4338 83.4801 10.2014 83.3348 9.7074C83.1604 9.21343 83.3638 8.6904 83.7997 8.487C84.2065 8.2836 84.7005 8.51606 84.8458 9.01003Z" fill="#EBD1A0"/>
<path d="M36.5251 33.973C36.8329 33.7878 37.0971 33.4909 37.0979 33.0348C37.0997 32.0989 36.3808 31.7191 35.3942 31.7172L34.1576 31.7148C34.0359 31.7146 33.9378 31.8158 33.9375 31.9374L33.9284 36.6811C33.9282 36.8028 34.026 36.901 34.1476 36.9012L35.5532 36.9039C36.506 36.9057 37.3382 36.3397 37.34 35.4105C37.3411 34.8564 36.9602 34.3996 36.5181 34.1149C36.4405 34.0641 36.427 34.037 36.5251 33.973ZM36.6418 33.0339C36.6405 33.6962 36.12 33.7931 35.3902 33.7917C35.3902 33.7917 34.6435 33.7903 34.5388 33.7901C34.4374 33.7899 34.3936 33.7358 34.3938 33.6344C34.3945 33.2729 34.3962 32.391 34.3963 32.3201C34.3965 32.2356 34.4337 32.1782 34.5554 32.1785C34.6736 32.1787 35.4271 32.1801 35.4271 32.1801C36.1468 32.1815 36.6431 32.3616 36.6418 33.0339ZM35.5541 36.4444C35.5541 36.4444 34.6654 36.4427 34.5607 36.4425C34.4526 36.4423 34.3885 36.3847 34.3887 36.2833C34.3888 36.2056 34.3914 34.871 34.3923 34.4081C34.3925 34.3102 34.4298 34.2528 34.5379 34.253C34.6359 34.2532 35.5583 34.255 35.5583 34.255C36.2543 34.2563 36.8886 34.7272 36.8873 35.4097C36.886 36.0922 36.2501 36.4457 35.5541 36.4444Z" fill="#EBD1A0"/>
<path d="M44.162 31.734L44.1384 31.734C44.0201 31.7338 43.9186 31.8349 43.9183 31.9566L43.9134 34.5278C43.911 35.7644 43.5682 36.5882 42.4329 36.586C41.2875 36.5838 40.8769 35.7586 40.8793 34.522L40.8842 31.9507C40.8844 31.8291 40.7934 31.7276 40.6718 31.7273L40.6515 31.7273C40.5299 31.7271 40.4317 31.8282 40.4315 31.9499L40.4265 34.5211C40.4237 36.0044 40.9455 37.0088 42.4321 37.0117C43.9086 37.0145 44.3734 36.0119 44.3763 34.5287L44.3812 31.9574C44.3814 31.8358 44.2803 31.7343 44.162 31.734Z" fill="#EBD1A0"/>
<path d="M50.9464 31.8045L50.9329 31.7909C50.8317 31.7198 50.6965 31.7466 50.6254 31.8478C50.6254 31.8478 49.4496 33.5788 49.3785 33.6767C49.2362 33.8758 49.2665 33.9062 49.1014 33.6694C49.0239 33.5577 47.8683 31.8425 47.8683 31.8425C47.7975 31.741 47.6624 31.7137 47.5643 31.7845L47.544 31.798C47.4425 31.862 47.422 32.0038 47.4928 32.1053C47.4928 32.1053 48.8034 34.0101 48.8877 34.1319C48.9719 34.2604 49.0156 34.3821 49.0153 34.5443C49.015 34.7065 49.0111 36.7101 49.0111 36.7101C49.0109 36.8317 49.1087 36.9299 49.2303 36.9301L49.2438 36.9302C49.3655 36.9304 49.4636 36.8326 49.4639 36.711C49.4639 36.711 49.4677 34.7141 49.468 34.552C49.4683 34.3965 49.5193 34.248 49.604 34.1197C49.6921 33.9983 51.0033 32.1121 51.0033 32.1121C51.0744 32.0108 51.0443 31.8689 50.9464 31.8045Z" fill="#EBD1A0"/>
<path d="M55.4259 33.9383C54.7704 33.9641 54.545 33.44 54.5459 33.0142C54.5468 32.5074 54.9024 32.0959 55.443 32.0969C55.791 32.0976 55.99 32.2838 56.2293 32.5749C56.408 32.7881 56.7766 32.5894 56.6218 32.3121C56.386 31.8994 55.9608 31.6722 55.4438 31.6712C54.6633 31.6697 54.1216 32.2735 54.1201 33.0134C54.1186 33.8378 54.7189 34.3999 55.4251 34.3708C56.0705 34.3383 56.5392 34.8494 56.538 35.4609C56.5367 36.1367 56.1101 36.6122 55.4343 36.6109C54.9849 36.6101 54.7151 36.3528 54.4961 36.0314C54.2636 35.7066 53.8577 35.9727 54.0564 36.3008C54.3326 36.7575 54.8287 37.0355 55.4335 37.0367C56.3424 37.0384 56.9687 36.3706 56.9705 35.4617C56.9725 34.3974 56.0443 33.9192 55.4259 33.9383Z" fill="#EBD1A0"/>
<path d="M62.3766 31.9041C62.3429 31.8129 62.2552 31.7688 62.1639 31.7686C62.0795 31.7684 61.9848 31.8122 61.9508 31.9033L59.9517 36.6399C59.9109 36.7445 59.9579 36.8798 60.0727 36.9239L60.0862 36.9307C60.201 36.9816 60.3295 36.9244 60.377 36.8164C60.377 36.8164 60.8861 35.6179 60.9201 35.5335C60.9574 35.4491 61.0048 35.4188 61.0926 35.419C61.1636 35.4191 62.7482 35.4221 63.2145 35.423C63.3023 35.4232 63.3563 35.4537 63.3866 35.518C63.4135 35.5788 63.9315 36.8232 63.9315 36.8232C63.9786 36.9314 64.1068 36.9891 64.2218 36.9386L64.2353 36.9319C64.3503 36.8882 64.408 36.7532 64.3575 36.6483L62.3766 31.9041ZM61.1984 34.865C61.2188 34.8144 61.8707 33.1837 62.0912 32.7077C62.1489 32.5862 62.1759 32.5863 62.2263 32.708C62.4248 33.1848 63.0738 34.7774 63.1108 34.8484C63.1445 34.933 63.1309 34.9634 63.0329 34.9632C62.9383 34.963 61.6814 34.9606 61.2827 34.9598C61.205 34.9597 61.178 34.9292 61.1984 34.865Z" fill="#EBD1A0"/>
<path d="M70.0206 36.5105L67.9866 36.5066C67.9224 36.5065 67.9089 36.4828 67.909 36.422L67.9175 32.0026C67.9177 31.881 67.82 31.7794 67.6983 31.7792L67.6781 31.7792C67.5564 31.7789 67.4582 31.8801 67.458 32.0017L67.4489 36.7455C67.4487 36.8671 67.5465 36.9653 67.6681 36.9655L70.0197 36.9701C70.138 36.9703 70.2395 36.8725 70.2397 36.7509L70.2398 36.7306C70.24 36.6089 70.1388 36.5108 70.0206 36.5105Z" fill="#EBD1A0"/>
<path d="M76.0787 36.5222L73.8419 36.5179C73.7777 36.5178 73.7643 36.4941 73.7644 36.4333L73.7679 34.6256C73.768 34.5615 73.7883 34.548 73.8592 34.5481L75.6804 34.5516C75.7986 34.5518 75.9002 34.454 75.9004 34.3324L75.9004 34.3189C75.9007 34.1973 75.7995 34.0991 75.6812 34.0989L73.8466 34.0953C73.7824 34.0952 73.7689 34.0715 73.7691 34.0006L73.7723 32.3247C73.7724 32.2673 73.7927 32.2471 73.8636 32.2472L75.9517 32.2512C76.0733 32.2514 76.1749 32.1536 76.1751 32.032L76.1752 32.0185C76.1754 31.8969 76.0742 31.7953 75.9526 31.7951L73.53 31.7904C73.4118 31.7902 73.317 31.8914 73.3167 32.013L73.3076 36.7568C73.3074 36.8784 73.4018 36.9766 73.5201 36.9768L76.0778 36.9817C76.1994 36.9819 76.301 36.8841 76.3012 36.7625L76.3012 36.7422C76.3015 36.6206 76.2003 36.5224 76.0787 36.5222Z" fill="#EBD1A0"/>
<path d="M34.403 41.1657C34.366 41.071 34.2816 41.0303 34.1904 41.0301C34.1025 41.0299 34.0112 41.0703 33.9773 41.1648L31.9781 45.898C31.934 46.0061 31.9844 46.1413 32.0992 46.1821L32.1127 46.1889C32.2241 46.2397 32.3526 46.1826 32.4035 46.0779C32.4035 46.0779 32.9092 44.876 32.9465 44.7917C32.9805 44.7072 33.0312 44.6803 33.1157 44.6805C33.1866 44.6806 34.7713 44.6837 35.2409 44.6846C35.3254 44.6847 35.3828 44.7119 35.4097 44.7761C35.44 44.8404 35.9545 46.0847 35.9545 46.0847C36.005 46.1896 36.1333 46.2473 36.2483 46.1968L36.2618 46.1901C36.3734 46.1497 36.4311 46.0147 36.384 45.9065L34.403 41.1657ZM33.2249 44.1232C33.2452 44.0759 33.8937 42.4419 34.1176 41.9659C34.1719 41.8477 34.2023 41.8478 34.2528 41.9661C34.4478 42.4429 35.1003 44.0356 35.1339 44.1066C35.1709 44.1911 35.1573 44.2215 35.056 44.2213C34.9647 44.2211 33.7079 44.2187 33.3092 44.218C33.2314 44.2178 33.2045 44.1873 33.2249 44.1232Z" fill="#EBD1A0"/>
<path d="M41.6339 40.9566C40.1506 40.9537 38.9489 42.1475 38.946 43.6307C38.9432 45.1106 40.1403 46.3191 41.6236 46.322C42.2926 46.3233 42.8911 46.0744 43.3446 45.68C43.3683 45.6563 43.4157 45.6024 43.4159 45.5213C43.4159 45.4875 43.4164 45.2375 43.4167 45.0685C43.4169 44.9908 43.3696 44.984 43.3256 45.038C42.9394 45.5575 42.3306 45.8976 41.6244 45.8963C40.3979 45.8939 39.3964 44.8615 39.3988 43.6316C39.4011 42.4017 40.4066 41.3833 41.6331 41.3857C42.3392 41.387 42.9468 41.7193 43.3309 42.2404C43.3748 42.2979 43.4221 42.2912 43.4222 42.2034C43.4226 42.0344 43.423 41.7912 43.4231 41.7506C43.4232 41.6797 43.3761 41.6154 43.3524 41.6018C42.9139 41.2226 42.3029 40.9578 41.6339 40.9566Z" fill="#EBD1A0"/>
<path d="M48.7694 41.1933C48.7324 41.0986 48.648 41.0579 48.5534 41.0577C48.4689 41.0575 48.3776 41.0979 48.3403 41.1924L46.3445 45.9256C46.3003 46.0336 46.3508 46.1689 46.4622 46.2097L46.4791 46.2164C46.5905 46.2673 46.719 46.2101 46.7698 46.1055C46.7698 46.1055 47.2756 44.9036 47.3129 44.8192C47.3469 44.7348 47.3976 44.7079 47.4821 44.7081C47.553 44.7082 49.1376 44.7112 49.6073 44.7121C49.6918 44.7123 49.7491 44.7394 49.7761 44.8037C49.8063 44.8679 50.3209 46.1123 50.3209 46.1123C50.3714 46.2172 50.4997 46.2748 50.6113 46.2244L50.6282 46.2176C50.7397 46.1773 50.7974 46.0423 50.747 45.9341L48.7694 41.1933ZM47.5913 44.1508C47.6116 44.1035 48.2601 42.4694 48.4806 41.9935C48.5383 41.8753 48.5687 41.8754 48.6158 41.9937C48.8142 42.4705 49.4666 44.0632 49.5003 44.1342C49.5373 44.2187 49.5237 44.2491 49.4224 44.2489C49.3311 44.2487 48.0742 44.2463 47.6755 44.2455C47.5978 44.2454 47.5675 44.2149 47.5913 44.1508Z" fill="#EBD1A0"/>
<path d="M55.0541 41.0702L54.0675 41.0683C53.9459 41.068 53.8477 41.1591 53.8475 41.2807L53.8383 46.0346C53.8381 46.1528 53.9359 46.2544 54.0575 46.2546L55.0441 46.2565C56.5308 46.2594 57.6616 45.0655 57.6644 43.5822C57.6673 42.0956 56.5407 41.073 55.0541 41.0702ZM55.045 45.7936C55.045 45.7936 54.4909 45.7926 54.4132 45.7924C54.3355 45.7923 54.3018 45.7483 54.3019 45.6841C54.302 45.6233 54.3085 42.2344 54.3097 41.6161C54.3098 41.5586 54.3369 41.5215 54.4146 41.5217C54.4923 41.5218 55.0532 41.5229 55.0532 41.5229C56.2831 41.5253 57.214 42.3515 57.2117 43.5813C57.2093 44.8112 56.2749 45.796 55.045 45.7936Z" fill="#EBD1A0"/>
<path d="M63.6777 45.8102L61.441 45.8059C61.3768 45.8058 61.3633 45.7855 61.3634 45.7213L61.3669 43.9171C61.367 43.8529 61.3873 43.8394 61.4583 43.8395L63.276 43.843C63.3977 43.8432 63.4992 43.7421 63.4994 43.6204L63.4995 43.6069C63.4997 43.4853 63.3985 43.3871 63.2769 43.3869L61.4456 43.3834C61.3814 43.3832 61.368 43.3629 61.3681 43.292L61.3713 41.6128C61.3714 41.5587 61.3917 41.5351 61.4627 41.5352L63.5507 41.5392C63.6724 41.5395 63.7739 41.4417 63.7742 41.32L63.7742 41.3065C63.7744 41.1849 63.6733 41.0867 63.5516 41.0865L61.1291 41.0818C61.0108 41.0816 60.916 41.1794 60.9158 41.301L60.9067 46.0482C60.9064 46.1664 61.0008 46.268 61.1191 46.2682L63.6768 46.2731C63.7984 46.2733 63.8966 46.1722 63.8968 46.0539L63.8969 46.0303C63.8971 45.9086 63.7993 45.8105 63.6777 45.8102Z" fill="#EBD1A0"/>
<path d="M71.1977 41.1012C71.0964 41.101 71.049 41.1414 71.0185 41.165C71.0185 41.165 69.5386 42.9428 69.4235 43.0777C69.2609 43.27 69.2676 43.3004 69.1125 43.1143C69.0114 42.9924 67.4945 41.1582 67.4945 41.1582C67.4675 41.1345 67.4237 41.0939 67.3189 41.0937C67.1973 41.0935 67.0991 41.1913 67.0989 41.3129L67.0898 46.06C67.0895 46.1783 67.1873 46.2798 67.309 46.2801L67.3292 46.2801C67.4509 46.2804 67.549 46.1792 67.5493 46.0609C67.5493 46.0609 67.5565 42.2801 67.5569 42.1146C67.5572 41.9591 67.6079 41.939 67.6921 42.0439C68.0697 42.5075 69.0674 43.7393 69.0876 43.7663C69.1247 43.8036 69.1889 43.8307 69.2531 43.8308C69.3173 43.831 69.3511 43.8175 69.4154 43.767C69.4661 43.7265 70.4619 42.485 70.8276 42.0364C70.9055 41.9385 70.9528 41.9386 70.9525 42.1211C70.9521 42.3137 70.9449 46.0674 70.9449 46.0674C70.9447 46.1857 71.0459 46.2873 71.1675 46.2875L71.1878 46.2875C71.3094 46.2878 71.4076 46.1866 71.4078 46.0683L71.4169 41.3212C71.4171 41.1996 71.3194 41.1014 71.1977 41.1012Z" fill="#EBD1A0"/>
<path d="M77.9821 41.1716L77.9686 41.1547C77.8674 41.0836 77.7322 41.1137 77.661 41.2116C77.661 41.2116 76.4853 42.9426 76.4141 43.0438C76.2718 43.2429 76.3022 43.27 76.1371 43.0365C76.0596 42.9215 74.9074 41.2063 74.9074 41.2063C74.8366 41.1081 74.7015 41.0775 74.6 41.1482L74.5797 41.1651C74.4782 41.2257 74.4577 41.3676 74.5284 41.4691C74.5284 41.4691 75.8391 43.3738 75.9233 43.4956C76.011 43.6242 76.0513 43.7459 76.051 43.9081C76.0506 44.0736 76.0468 46.0772 76.0468 46.0772C76.0466 46.1955 76.1477 46.297 76.266 46.2973L76.2829 46.2973C76.4011 46.2975 76.5027 46.1964 76.5029 46.0781C76.5029 46.0781 76.5067 44.0813 76.5071 43.9157C76.5074 43.7603 76.555 43.6117 76.643 43.4835C76.7277 43.362 78.0389 41.4758 78.0389 41.4758C78.1101 41.3746 78.08 41.2326 77.9821 41.1716Z" fill="#EBD1A0"/>
<path d="M12.8703 30.8728L12.8624 30.858C12.8224 30.7835 12.7263 30.7546 12.6489 30.7961L9.86853 32.2888C9.82685 32.3112 9.80993 32.3011 9.78756 32.2595L9.25376 31.2652C9.22979 31.2205 9.23233 31.2038 9.274 31.1815L12.0544 29.6887C12.1318 29.6472 12.1591 29.5481 12.1192 29.4737L12.1128 29.4618C12.0712 29.3844 11.9752 29.3555 11.8978 29.397L9.11738 30.8897C9.07571 30.9121 9.05878 30.902 9.03801 30.8633L8.50421 29.869C8.47864 29.8214 8.48118 29.8047 8.52286 29.7823L11.3032 28.2896C11.3806 28.2481 11.4128 28.1579 11.3712 28.0805L11.3648 28.0686C11.3233 27.9912 11.2272 27.9623 11.1498 28.0038L8.167 29.6052C8.09258 29.6452 8.06363 29.7413 8.10518 29.8187C8.10518 29.8187 9.56753 32.5425 9.61227 32.6258C9.66022 32.7151 9.75861 32.7198 9.82113 32.6863L12.8039 31.0849C12.8813 31.0433 12.9103 30.9473 12.8703 30.8728Z" fill="#EBD1A0"/>
<path d="M11.0915 34.8382C11.0915 34.8382 11.6516 33.6172 11.6743 33.5666C11.6957 33.5206 11.7272 33.5152 11.7622 33.5232C11.7975 33.5388 12.633 33.8381 12.633 33.8381C12.7186 33.8688 12.8035 33.827 12.8375 33.7475L12.8416 33.7337C12.8665 33.6514 12.8231 33.5635 12.7451 33.5325C12.7451 33.5325 11.522 33.1115 11.4731 33.0917C11.4182 33.0752 11.4189 33.048 11.4695 33.0208C11.5231 32.992 12.1929 32.6324 12.1929 32.6324C12.2673 32.5925 12.2962 32.4964 12.2547 32.419L12.2483 32.4071C12.2067 32.3297 12.1107 32.3008 12.0363 32.3407L10.1727 33.3412C10.0983 33.3811 10.0694 33.4772 10.1109 33.5546L10.1173 33.5665C10.1589 33.6439 10.2549 33.6729 10.3294 33.6329C10.3294 33.6329 10.9366 33.3069 10.9872 33.2797C11.0408 33.2509 11.0681 33.2517 11.1063 33.2657C11.1918 33.2964 11.378 33.3575 11.4055 33.3658C11.4437 33.3798 11.4596 33.4096 11.4456 33.4478C11.4241 33.4862 10.7972 34.6971 10.7972 34.6971C10.7586 34.7753 10.7947 34.871 10.8729 34.9096L10.8866 34.9137C10.9632 34.9493 11.0589 34.9132 11.0915 34.8382Z" fill="#EBD1A0"/>
<path d="M13.8537 35.2689C13.5197 34.6467 12.7465 34.4137 12.1243 34.7477C11.5052 35.0802 11.2692 35.855 11.6032 36.4771C11.9388 37.1023 12.715 37.3337 13.3342 37.0012C13.9563 36.6672 14.1893 35.894 13.8537 35.2689ZM11.8711 36.3333C11.6234 35.8719 11.8134 35.2828 12.2778 35.0335C12.7422 34.7842 13.3381 34.9513 13.5858 35.4127C13.8351 35.8771 13.6435 36.4632 13.1792 36.7125C12.7148 36.9618 12.1204 36.7977 11.8711 36.3333Z" fill="#EBD1A0"/>
<path d="M12.5465 38.0914C12.5545 38.1062 12.5609 38.1181 12.5609 38.1181C12.6217 38.2313 12.6617 38.2558 12.7914 38.2475C12.7914 38.2475 14.3747 38.1108 14.4864 38.1045C14.5226 38.1004 14.6143 38.0857 14.64 38.0834C14.7212 38.0705 14.7121 38.0677 14.661 38.1297C14.6362 38.1621 14.5791 38.2273 14.5587 38.2536C14.4904 38.3478 13.5058 39.5782 13.5058 39.5782C13.4419 39.6662 13.4224 39.7227 13.4863 39.8418L13.4991 39.8656C13.5534 39.9668 13.6482 39.9504 13.7034 39.8747C13.7559 39.8082 15.2013 37.8933 15.2013 37.8933C15.2476 37.8224 15.2189 37.7688 15.1358 37.7712C15.1358 37.7712 12.7394 37.9149 12.6367 37.9164C12.5355 37.9209 12.513 38.0288 12.5465 38.0914Z" fill="#EBD1A0"/>
<path d="M14.8159 39.7683C14.1908 40.104 13.9685 40.8829 14.3042 41.508C14.4752 41.8265 14.7612 42.045 15.0913 42.117C15.111 42.118 15.1359 42.1429 15.0823 42.1717C15.0495 42.1893 14.9483 42.2436 14.9483 42.2436C14.8709 42.2852 14.842 42.3812 14.8835 42.4586L14.8883 42.4676C14.9283 42.542 15.0244 42.5709 15.1018 42.5294L16.9683 41.5273C17.0427 41.4874 17.0716 41.3913 17.0317 41.3169L17.0269 41.3079C16.9853 41.2305 16.8893 41.2016 16.8148 41.2416C16.7612 41.2703 16.6898 41.3087 16.6838 41.3119C16.6273 41.3422 16.6152 41.2912 16.6326 41.2665C16.7557 40.9742 16.7161 40.6005 16.5499 40.2909C16.2142 39.6657 15.4411 39.4327 14.8159 39.7683ZM14.9693 40.0541C15.4337 39.8048 16.031 39.9673 16.2819 40.4347C16.5313 40.8991 16.3399 41.4927 15.8755 41.742C15.4111 41.9913 14.8214 41.8286 14.5721 41.3642C14.3212 40.8968 14.505 40.3034 14.9693 40.0541Z" fill="#EBD1A0"/>
<path d="M19.1437 45.1223C18.9855 44.8276 18.7112 44.5952 18.3968 44.5454C18.33 44.5352 18.3317 44.4883 18.3869 44.4625C19.1571 44.1257 19.7869 44.2631 20.0314 44.7186C20.1753 44.9865 20.227 45.3614 20.4355 45.5141C20.4632 45.5299 20.4964 45.5274 20.535 45.5066C20.6154 45.4635 20.7196 45.4076 20.7494 45.3916C20.8179 45.3548 20.8332 45.312 20.7026 45.2901C20.432 45.236 20.4482 44.8592 20.2964 44.5764C19.9735 43.975 19.2497 43.8268 18.5844 44.0804C17.9625 44.3222 17.5721 44.5165 17.4203 44.598C16.8339 44.9128 16.5592 45.7084 16.8932 46.3305C17.2288 46.9557 18.0064 47.1825 18.6285 46.8485C19.2477 46.5161 19.4794 45.7474 19.1437 45.1223ZM17.1611 46.1867C16.9134 45.7253 17.111 45.136 17.5753 44.8867C18.0397 44.6374 18.6281 44.8047 18.8758 45.2661C19.1251 45.7305 18.9395 46.3134 18.4751 46.5627C18.0107 46.812 17.4105 46.6511 17.1611 46.1867Z" fill="#EBD1A0"/>
<path d="M17.811 47.8971C17.819 47.912 17.8254 47.9239 17.8254 47.9239C17.8861 48.0371 17.9261 48.0616 18.0559 48.0533C18.0559 48.0533 19.6391 47.9166 19.7508 47.9103C19.787 47.9062 19.8788 47.8915 19.9044 47.8892C19.9857 47.8763 19.9765 47.8735 19.9254 47.9355C19.9006 47.9679 19.8436 48.0331 19.8232 48.0594C19.7549 48.1536 18.7703 49.3839 18.7703 49.3839C18.7063 49.472 18.6868 49.5285 18.7507 49.6475L18.7635 49.6714C18.8178 49.7726 18.9126 49.7562 18.9678 49.6805C19.0203 49.614 20.4657 47.699 20.4657 47.699C20.5121 47.6282 20.4833 47.5746 20.4002 47.577C20.4002 47.577 18.0039 47.7207 17.9011 47.7222C17.8 47.7266 17.7774 47.8346 17.811 47.8971Z" fill="#EBD1A0"/>
<path d="M21.8127 50.0937C21.4787 49.4715 20.7055 49.2385 20.0833 49.5725C19.4641 49.905 19.2282 50.6797 19.5622 51.3019C19.8978 51.927 20.674 52.1584 21.2932 51.826C21.9153 51.492 22.1483 50.7188 21.8127 50.0937ZM19.8301 51.1581C19.5824 50.6966 19.7724 50.1076 20.2368 49.8583C20.7011 49.609 21.2971 49.7761 21.5448 50.2375C21.7941 50.7019 21.6025 51.2879 21.1381 51.5373C20.6737 51.7866 20.0794 51.6225 19.8301 51.1581Z" fill="#EBD1A0"/>
<path d="M21.5932 54.3992C21.5932 54.3992 22.1533 53.1781 22.1744 53.1246C22.1958 53.0786 22.2274 53.0732 22.264 53.0842C22.2992 53.0998 23.1348 53.399 23.1348 53.399C23.2187 53.4268 23.3052 53.388 23.3376 53.3055L23.3418 53.2917C23.3666 53.2094 23.3248 53.1244 23.2452 53.0905C23.2452 53.0905 22.0237 52.6725 21.9748 52.6527C21.9199 52.6362 21.919 52.606 21.9696 52.5788C22.0232 52.55 22.693 52.1904 22.693 52.1904C22.7674 52.1505 22.7964 52.0544 22.7564 51.98L22.7484 51.9651C22.7085 51.8907 22.6124 51.8617 22.538 51.9017L20.6744 52.9022C20.6 52.9421 20.5711 53.0382 20.611 53.1126L20.619 53.1275C20.659 53.2019 20.755 53.2309 20.8295 53.1909C20.8295 53.1909 21.4367 52.8649 21.4874 52.8377C21.5409 52.8089 21.5698 52.8126 21.608 52.8266C21.6919 52.8544 21.8781 52.9155 21.9056 52.9238C21.9438 52.9378 21.9613 52.9706 21.9457 53.0058C21.9258 53.0472 21.2989 54.2581 21.2989 54.2581C21.2603 54.3363 21.2964 54.432 21.3746 54.4706L21.3883 54.4747C21.4633 54.5073 21.5606 54.4742 21.5932 54.3992Z" fill="#EBD1A0"/>
<path d="M24.4893 55.5364C24.5638 55.4965 24.5927 55.4004 24.5512 55.323L24.5464 55.3141C24.5064 55.2397 24.4103 55.2107 24.3359 55.2507C24.3359 55.2507 23.8924 55.4888 23.8388 55.5176C23.4696 55.7157 23.2022 55.6676 22.9848 55.2627C22.8186 54.9531 22.9048 54.6423 23.3514 54.4025L23.7622 54.182C23.8366 54.142 23.8655 54.0459 23.8256 53.9715L23.8176 53.9566C23.7776 53.8822 23.6816 53.8533 23.6071 53.8932L23.1725 54.1266C22.4819 54.4973 22.498 54.9987 22.7169 55.4066C22.8096 55.5792 22.9556 55.7655 23.224 55.7939C23.2604 55.7974 23.2762 55.8196 23.2196 55.85C23.1779 55.8724 22.4724 56.2511 22.4724 56.2511C22.398 56.2911 22.369 56.3872 22.409 56.4616L22.417 56.4765C22.4569 56.5509 22.553 56.5798 22.6274 56.5399L24.4893 55.5364Z" fill="#EBD1A0"/>
<path d="M25.2813 58.7045C25.4886 58.5549 25.628 58.3574 25.7027 58.1179C25.8061 57.7747 25.765 57.4554 25.5972 57.1429C25.4294 56.8303 25.1876 56.6227 24.8444 56.5193C24.5059 56.4173 24.1848 56.4478 23.8722 56.6156C23.5596 56.7834 23.3538 57.0358 23.2488 57.3759C23.1514 57.7158 23.1789 58.0385 23.3467 58.3511C23.5225 58.6786 23.827 58.9101 24.1983 58.9945C24.3093 59.0155 24.4075 58.9627 24.418 58.8536C24.4246 58.7158 24.3463 58.6773 24.167 58.6432C23.986 58.6061 23.7377 58.4365 23.6146 58.2073C23.49 57.9751 23.4976 57.7179 23.5721 57.4708C23.6366 57.2482 23.7751 57.0704 23.9888 56.9327C24.054 56.8899 24.0799 56.8952 24.1134 56.9577L25.0308 58.6665C25.0979 58.7915 25.2177 58.7502 25.2813 58.7045ZM25.1775 58.2541L24.4392 56.8787C24.4008 56.8073 24.3926 56.7849 24.4681 56.7827C24.5439 56.788 24.6395 56.8019 24.7493 56.835C25.0009 56.9108 25.2047 57.0545 25.3293 57.2867C25.4524 57.5159 25.4596 57.7651 25.3838 58.0168C25.3578 58.1113 25.3252 58.1863 25.2833 58.251C25.253 58.3017 25.2287 58.3493 25.1775 58.2541Z" fill="#EBD1A0"/>
<path d="M27.6581 59.7601C27.4819 59.732 27.3637 59.6689 27.2774 59.5082C27.1895 59.3444 27.2022 59.211 27.2761 59.0487C27.3757 58.8341 27.0855 58.6793 26.9801 58.9545C26.886 59.2006 26.9226 59.4187 27.0392 59.636C27.1543 59.8504 27.3159 60.0014 27.5731 60.0589C27.8606 60.1231 27.8919 59.7957 27.6581 59.7601ZM24.6972 60.8666C24.7931 61.0452 24.9994 61.2795 25.2467 61.3116C25.2726 61.3169 25.2749 61.3426 25.257 61.3522C25.2481 61.357 25.2094 61.3777 25.2004 61.3825C25.1379 61.4161 25.1211 61.5133 25.1595 61.5848L25.1658 61.5967C25.2074 61.6741 25.3051 61.706 25.3854 61.6629L27.2355 60.6658C27.3158 60.6227 27.3448 60.5266 27.3016 60.4462L27.2968 60.4373C27.2537 60.3569 27.1576 60.3279 27.0772 60.3711C27.0772 60.3711 25.9252 60.9896 25.8716 61.0184C25.4935 61.2213 25.1946 61.1287 24.974 60.7179C24.803 60.3994 24.8696 60.0377 25.3191 59.7964L26.4444 59.1923C26.5247 59.1491 26.5537 59.053 26.5121 58.9756L26.5057 58.9637C26.4642 58.8863 26.3665 58.8544 26.2861 58.8975L25.143 59.5113C24.4375 59.89 24.4734 60.4498 24.6972 60.8666Z" fill="#EBD1A0"/>
<path d="M28.6537 62.9646L28.6457 62.9497C28.6058 62.8753 28.5097 62.8464 28.4353 62.8863L27.7297 63.2651C27.7059 63.2779 27.6785 63.2696 27.6657 63.2458L27.0232 62.0491C27.012 62.0283 27.0203 62.0008 27.0441 61.988L27.7496 61.6093C27.8241 61.5693 27.853 61.4732 27.8115 61.3958L27.8051 61.3839C27.7635 61.3065 27.6674 61.2776 27.593 61.3175L25.7295 62.318C25.6551 62.3579 25.6261 62.454 25.6677 62.5314L25.6741 62.5433C25.7156 62.6207 25.8117 62.6497 25.8861 62.6097L26.672 62.1878C26.6958 62.175 26.7233 62.1833 26.7345 62.2041L27.3769 63.4008C27.3897 63.4246 27.3814 63.4521 27.3576 63.4649L26.5717 63.8868C26.4973 63.9267 26.4684 64.0228 26.5083 64.0972L26.5163 64.1121C26.5563 64.1866 26.6523 64.2155 26.7268 64.1755L28.5903 63.1751C28.6647 63.1351 28.6937 63.0391 28.6537 62.9646Z" fill="#EBD1A0"/>
<path d="M30.8832 67.1174L30.1704 65.7897C30.1304 65.7153 30.0343 65.6863 29.9599 65.7263L29.951 65.7311C29.8736 65.7726 29.8446 65.8687 29.8846 65.9431L30.1387 66.4164C30.1531 66.4432 30.1418 66.4723 30.118 66.485L28.448 67.3816C28.3736 67.4216 28.3446 67.5177 28.3862 67.5951L28.3926 67.607C28.4341 67.6844 28.5302 67.7133 28.6046 67.6734L30.2747 66.7768C30.2985 66.764 30.3289 66.7707 30.3401 66.7915L30.5974 67.2708C30.6373 67.3452 30.7334 67.3742 30.8108 67.3326L30.8198 67.3278C30.8942 67.2879 30.9231 67.1918 30.8832 67.1174Z" fill="#EBD1A0"/>
<path d="M31.5558 70.3917C31.7615 70.2391 31.9025 70.0445 31.9756 69.802C32.079 69.4589 32.0395 69.1426 31.8717 68.83C31.7039 68.5175 31.4605 68.3069 31.1173 68.2035C30.7804 68.1044 30.4577 68.1319 30.1451 68.2998C29.8325 68.4676 29.6283 68.7229 29.5217 69.0601C29.4243 69.4 29.4534 69.7257 29.6212 70.0383C29.7954 70.3628 30.1015 70.5972 30.4712 70.6787C30.5822 70.6997 30.6804 70.6469 30.6909 70.5378C30.699 70.403 30.6208 70.3645 30.4399 70.3274C30.2605 70.2933 30.0106 70.1207 29.8891 69.8944C29.7645 69.6622 29.7721 69.405 29.8466 69.158C29.9095 68.9324 30.048 68.7546 30.2616 68.6168C30.3285 68.5771 30.3528 68.5794 30.3863 68.6419L31.3053 70.3536C31.3724 70.4787 31.4921 70.4374 31.5558 70.3917ZM31.452 69.9412L30.7137 68.5659C30.6753 68.4945 30.6655 68.4691 30.7426 68.4698C30.8184 68.4752 30.9124 68.4861 31.0222 68.5192C31.2754 68.598 31.4791 68.7417 31.6038 68.9739C31.7253 69.2001 31.7325 69.4493 31.6583 69.7039C31.6323 69.7984 31.5997 69.8734 31.5562 69.9352C31.5259 69.9859 31.5016 70.0335 31.452 69.9412Z" fill="#EBD1A0"/>
<path d="M33.2293 71.4874C33.1989 71.4308 33.1217 71.3726 33.0537 71.3746L32.3278 71.4153C32.1889 71.4209 32.1889 71.4209 32.2702 71.3082L32.6989 70.7137C32.7383 70.6657 32.7355 70.5675 32.7051 70.511L32.6332 70.377C32.6012 70.3175 32.5513 70.3174 32.5151 70.3714L31.9671 71.2792C31.8976 71.3855 31.9157 71.3835 31.7839 71.3737L30.4986 71.3083C30.429 71.3073 30.4015 71.3489 30.4335 71.4084L30.5054 71.5424C30.5358 71.5989 30.622 71.6524 30.684 71.6536L31.6779 71.6262C31.8243 71.6204 31.8195 71.6115 31.7354 71.7334L31.1602 72.5407C31.121 72.5963 31.1239 72.6944 31.1543 72.751L31.2246 72.882C31.2549 72.9385 31.314 72.9414 31.3456 72.886L31.9875 71.7744C32.0494 71.6683 32.0375 71.6747 32.1691 71.6769L33.2391 71.7199C33.3057 71.7225 33.3332 71.6809 33.3012 71.6214L33.2293 71.4874Z" fill="#EBD1A0"/>
<path d="M34.5766 73.9969L34.5702 73.985C34.5287 73.9076 34.4326 73.8786 34.3582 73.9186L33.6526 74.2974C33.6288 74.3101 33.6014 74.3019 33.5902 74.281L32.9477 73.0843C32.9349 73.0605 32.9432 73.0331 32.967 73.0203L33.6725 72.6415C33.747 72.6016 33.7759 72.5055 33.736 72.4311L33.728 72.4162C33.688 72.3417 33.5919 72.3128 33.5175 72.3528L31.654 73.3532C31.5796 73.3932 31.5506 73.4892 31.5906 73.5637L31.5986 73.5786C31.6385 73.653 31.7346 73.6819 31.809 73.642L32.5949 73.2201C32.6187 73.2073 32.6462 73.2155 32.659 73.2394L33.3014 74.4361C33.3126 74.4569 33.3044 74.4843 33.2805 74.4971L32.4946 74.919C32.4202 74.959 32.3913 75.0551 32.4328 75.1325L32.4392 75.1444C32.4808 75.2218 32.5768 75.2507 32.6513 75.2108L34.5148 74.2103C34.5892 74.1704 34.6182 74.0743 34.5766 73.9969Z" fill="#EBD1A0"/>
<path d="M35.6178 75.8078C35.2854 75.1886 34.5106 74.9527 33.8885 75.2867C33.2693 75.6191 33.0349 76.3969 33.3673 77.0161C33.703 77.6412 34.4807 77.8756 35.0999 77.5432C35.7221 77.2091 35.9535 76.433 35.6178 75.8078ZM33.6353 76.8722C33.3891 76.4138 33.5775 75.8218 34.0419 75.5725C34.5063 75.3231 35.1038 75.4932 35.3499 75.9517C35.5992 76.4161 35.4077 77.0021 34.9433 77.2514C34.4789 77.5007 33.8846 77.3366 33.6353 76.8722Z" fill="#EBD1A0"/>
<path d="M34.3123 78.6333C34.3187 78.6452 34.3267 78.6601 34.3267 78.6601C34.3858 78.7702 34.4258 78.7947 34.5572 78.7894C34.5572 78.7894 36.1404 78.6527 36.2505 78.6434C36.2883 78.6423 36.3801 78.6276 36.4057 78.6253C36.4854 78.6094 36.4778 78.6096 36.4267 78.6716C36.4003 78.7011 36.3433 78.7662 36.3245 78.7955C36.2562 78.8897 35.2716 80.1201 35.2716 80.1201C35.206 80.2051 35.1865 80.2616 35.252 80.3837L35.2632 80.4045C35.3191 80.5087 35.4139 80.4923 35.4691 80.4167C35.52 80.3472 36.9655 78.4322 36.9655 78.4322C37.0118 78.3613 36.983 78.3077 36.9015 78.3131C36.9015 78.3131 34.5036 78.4539 34.4024 78.4583C34.2997 78.4598 34.2787 78.5708 34.3123 78.6333Z" fill="#EBD1A0"/>
<path d="M38.3124 80.8268C37.98 80.2076 37.2052 79.9717 36.583 80.3057C35.9638 80.6381 35.7295 81.4159 36.0619 82.0351C36.3975 82.6602 37.1753 82.8946 37.7945 82.5621C38.4166 82.2281 38.648 81.452 38.3124 80.8268ZM36.3298 81.8912C36.0837 81.4328 36.2721 80.8408 36.7365 80.5915C37.2008 80.3421 37.7984 80.5122 38.0445 80.9707C38.2938 81.4351 38.1022 82.0211 37.6378 82.2704C37.1734 82.5197 36.5791 82.3556 36.3298 81.8912Z" fill="#EBD1A0"/>
<path d="M39.5432 83.4909C39.6285 83.4068 39.5534 83.2668 39.5038 83.1746C39.3616 82.9096 39.0406 82.6332 38.6804 82.8266C38.3173 83.0216 37.1741 83.6353 37.1741 83.6353C37.0997 83.6753 37.0708 83.7713 37.1091 83.8428L37.1171 83.8577C37.1571 83.9321 37.2531 83.961 37.3276 83.9211L38.5778 83.2498C39.0035 83.0213 39.0934 83.0958 39.2304 83.3367C39.248 83.3694 39.2582 83.41 39.2714 83.4489C39.3152 83.5519 39.4582 83.5825 39.5432 83.4909Z" fill="#EBD1A0"/>
<path d="M38.2146 86.0449C38.3105 86.2235 38.5169 86.4579 38.7658 86.4929C38.7901 86.4953 38.7939 86.5239 38.7761 86.5335C38.7671 86.5383 38.7284 86.559 38.7195 86.5638C38.657 86.5974 38.6386 86.6917 38.6769 86.7631L38.6849 86.778C38.7249 86.8524 38.8241 86.8873 38.9045 86.8442L40.7529 85.8441C40.8333 85.801 40.8623 85.7049 40.8191 85.6245L40.8143 85.6156C40.7712 85.5352 40.6751 85.5063 40.5947 85.5494C40.5947 85.5494 39.4427 86.1679 39.3891 86.1967C39.011 86.3997 38.712 86.3071 38.4915 85.8963C38.3221 85.5807 38.3871 85.216 38.8366 84.9747L39.9618 84.3706C40.0422 84.3274 40.0712 84.2314 40.0312 84.1569L40.0232 84.1421C39.9833 84.0676 39.884 84.0327 39.8036 84.0759L38.6605 84.6896C37.955 85.0683 37.9925 85.6311 38.2146 86.0449Z" fill="#EBD1A0"/>
<path d="M42.4797 87.3676C42.3051 87.3424 42.1869 87.2793 42.1006 87.1186C42.0111 86.9519 42.0238 86.8185 42.0993 86.6591C42.1989 86.4445 41.9087 86.2897 41.8033 86.5649C41.7092 86.811 41.7442 87.0261 41.8624 87.2464C41.9775 87.4608 42.1375 87.6088 42.3947 87.6663C42.6822 87.7305 42.7135 87.4031 42.4797 87.3676ZM39.5188 88.474C39.6147 88.6526 39.821 88.887 40.0699 88.9221C40.0942 88.9244 40.098 88.953 40.0802 88.9626C40.0713 88.9674 40.0326 88.9881 40.0236 88.9929C39.9611 89.0265 39.9427 89.1208 39.981 89.1922L39.989 89.2071C40.029 89.2815 40.1283 89.3164 40.2086 89.2733L42.0571 88.2732C42.1374 88.2301 42.1664 88.134 42.1232 88.0536L42.1184 88.0447C42.0753 87.9643 41.9792 87.9354 41.8988 87.9785C41.8988 87.9785 40.7468 88.597 40.6932 88.6258C40.3151 88.8288 40.0162 88.7362 39.7956 88.3254C39.6262 88.0098 39.6912 87.6451 40.1407 87.4038L41.2659 86.7997C41.3463 86.7565 41.3753 86.6605 41.3353 86.586L41.3273 86.5712C41.2874 86.4967 41.1881 86.4618 41.1077 86.505L39.9646 87.1187C39.2591 87.4975 39.2966 88.0602 39.5188 88.474Z" fill="#EBD1A0"/>
<path d="M62.6786 58.6162H47.4621C47.3526 58.6162 47.2796 58.6878 47.2796 58.7953C47.2796 58.9027 47.3526 58.9743 47.4621 58.9743H62.6604C62.7698 58.9743 62.8428 58.9027 62.8428 58.7953C62.8428 58.6878 62.7698 58.6162 62.6786 58.6162Z" fill="#EBD1A0"/>
<path d="M62.6776 7.99873C62.3899 7.45536 62.1848 7.22927 61.8872 6.92894C61.3048 6.34321 60.855 5.78798 60.5771 5.64324C60.3011 5.50019 60.1361 5.51341 60.1361 5.51341C60.1361 5.51341 60.0127 5.43477 60.03 5.28359C60.0517 5.0958 60.3472 4.90598 60.3472 4.90598C60.3472 4.90598 60.2872 4.55616 60.3242 4.33346C60.3611 4.1111 60.5974 3.32232 60.4567 2.62777C60.3299 2.00339 60.0123 1.85933 59.8428 1.63595C59.7425 1.50443 59.5727 1.19529 59.349 1.03563C58.3775 0.340409 57.4572 0.646837 57.1911 0.744121C56.7192 0.916656 55.9837 1.06207 55.8071 1.3946C55.6844 1.62544 55.9295 1.78747 55.9295 1.78747C55.9295 1.78747 55.6057 2.74607 55.5946 2.85522C55.5762 3.0308 55.7312 3.09724 55.7501 3.20978C55.7891 3.44536 55.4207 3.88873 55.2291 4.17991C55.1559 4.29075 55.1491 4.34804 55.1634 4.41447C55.2054 4.60735 55.5817 4.50939 55.6451 4.66497C55.6766 4.74327 55.5579 4.92327 55.584 4.99716C55.6098 5.07173 55.7749 5.10936 55.7749 5.10936C55.7749 5.10936 55.644 5.21851 55.6708 5.31478C55.6983 5.41206 55.9027 5.4446 55.9162 5.5829C55.9291 5.72154 55.6464 6.06118 55.9762 6.25507C56.3491 6.47405 56.9406 6.15915 57.1016 6.20931C57.3385 6.28287 57.2141 6.54794 57.2596 6.6937C57.3084 6.84759 57.4843 7.10792 57.4843 7.10792C57.4843 7.10792 56.9745 8.25228 56.8355 8.8292C56.7426 9.21766 56.6823 9.72408 56.6372 9.92509C56.6115 10.0437 56.5216 10.36 56.4467 10.6183H55.1705C55.0058 10.4864 54.8129 10.3505 54.637 10.2725C54.2977 10.123 53.7848 10.2068 53.7848 10.2068C53.7848 10.2068 53.4875 9.85831 52.9682 9.86441C52.2452 9.87255 51.6215 10.2963 51.251 10.6183H47.4085C47.403 10.6183 47.3979 10.619 47.3929 10.619C47.3915 10.619 47.1888 10.6291 47.0169 10.4783C46.8336 10.3173 46.8966 10.1014 46.9007 10.0031C47.4217 8.22482 48.6247 5.40426 48.7718 5.1236C48.8274 5.02936 48.9528 4.94191 49.0643 4.90056C49.6399 7.75196 50.2382 8.70887 50.2382 8.70887L50.7097 8.61091L49.0287 0.496674L48.5572 0.594636C48.5572 0.594636 48.4742 1.78814 48.9853 4.47549C48.7823 4.55921 48.6325 4.68802 48.5067 4.82937C48.3599 4.99343 47.1871 7.6862 46.5336 9.91899C46.5302 9.93119 46.5275 9.94407 46.5265 9.95627C46.5231 10.002 46.4353 10.3786 46.6919 10.6929C46.9031 10.9505 47.2485 10.9966 47.3746 10.9966C47.3922 10.9966 47.4057 10.9959 47.4142 10.9956H56.7148V10.9949H63.5583C63.3813 10.0125 63.1305 8.85191 62.6776 7.99873Z" fill="#EBD1A0"/>
</svg>
