<svg width="596" height="192" viewBox="0 0 596 192" fill="none" xmlns="http://www.w3.org/2000/svg">
<path fill-rule="evenodd" clip-rule="evenodd" d="M147.047 14.6822C161.834 5.38042 179.336 -1.67845e-06 198.095 0C215.581 1.56454e-06 231.975 4.67491 246.095 12.8431C217.4 29.4419 198.095 60.4664 198.095 96C198.095 131.534 217.4 162.558 246.095 179.157C231.975 187.325 215.581 192 198.095 192C179.336 192 161.834 186.62 147.047 177.318C132.261 186.62 114.759 192 96 192C42.9807 192 -4.52877e-06 149.019 0 96C4.52877e-06 42.9807 42.9807 2.5092e-05 96 2.98359e-05C114.759 3.15143e-05 132.261 5.38044 147.047 14.6822ZM100.571 33.5243H88.3809V48.7624H100.571V33.5243ZM60.9523 54.8578V137.144H103.832C122.971 137.144 137.143 127.975 137.143 114.221C137.143 105.17 130.602 98.3517 120.064 94.9427C128.058 91.1811 133.267 84.4807 133.267 76.3697C133.267 63.3215 121.396 54.8578 103.832 54.8578H60.9523ZM103.832 68.9639C111.463 68.9639 117.035 72.9607 117.035 78.9558C117.035 84.5982 110.979 88.7125 103.832 88.7125H77.9104V68.9639H103.832ZM103.832 102.348C114.007 102.348 120.064 105.993 120.064 112.693C120.064 119.041 113.644 122.92 103.832 122.92H77.9104V102.348H103.832ZM88.3809 143.239H100.571V158.478H88.3809V143.239ZM192 33.5244H204.19V45.9607C202.218 45.7982 200.189 45.7151 198.109 45.7151C196.025 45.7151 193.986 45.7967 192 45.9572V33.5244ZM192 145.533V158.476H204.19V146.271C203.677 146.281 203.16 146.287 202.638 146.287C198.963 146.287 195.404 146.029 192 145.533ZM237.714 114.767C237.714 128.811 224.345 140.191 202.222 140.191C179.98 140.191 162.707 129.053 161.524 112.345H178.797C180.571 120.457 189.918 125.663 201.985 125.663C213.224 125.663 221.151 120.82 221.151 114.282C221.151 105.802 210.849 104.499 198.887 102.987C182.328 100.893 162.588 98.3962 162.588 75.9031C162.588 61.0115 177.968 51.8102 198.317 51.8102C219.85 51.8102 234.993 62.3433 236.294 77.7192H219.14C217.72 71.1814 208.965 65.8543 198.317 65.8543C186.723 65.8543 179.152 70.3339 179.152 76.3874C179.152 84.0601 188.941 85.3169 200.516 86.8028C217.25 88.9511 237.714 91.5783 237.714 114.767Z" fill="#EBD1A0"/>
<path d="M330.704 34.2797C332.573 32.0039 334.177 28.3571 334.182 22.753C334.193 11.2544 329.828 6.58816 323.838 6.56489L316.329 6.53572C315.591 6.53285 314.995 7.77588 314.993 9.27029L314.938 67.5522C314.937 69.0466 315.53 70.2527 316.269 70.2556L324.803 70.2888C330.588 70.3112 335.641 63.3569 335.652 51.9413C335.659 45.1335 333.346 39.5204 330.662 36.023C330.19 35.3985 330.109 35.0661 330.704 34.2797ZM331.413 22.7423C331.405 30.8785 328.245 32.0701 323.814 32.0529C323.814 32.0529 319.28 32.0352 318.644 32.0328C318.028 32.0304 317.762 31.3652 317.764 30.1198C317.768 25.6781 317.778 14.8436 317.779 13.9719C317.78 12.9341 318.006 12.2293 318.745 12.2322C319.463 12.235 324.037 12.2527 324.037 12.2527C328.407 12.2697 331.421 14.4815 331.413 22.7423ZM324.808 64.6432C324.808 64.6432 319.413 64.6223 318.777 64.6198C318.121 64.6172 317.732 63.91 317.733 62.6647C317.734 61.7099 317.749 45.313 317.755 39.6259C317.756 38.4221 317.982 37.7173 318.639 37.7198C319.233 37.7221 324.834 37.7439 324.834 37.7439C329.06 37.7603 332.911 43.5454 332.903 51.9307C332.895 60.3159 329.034 64.6596 324.808 64.6432Z" fill="#EBD1A0"/>
<path d="M377.073 6.77168L376.929 6.77113C376.211 6.76834 375.595 8.01129 375.593 9.5057L375.563 41.0958C375.549 56.289 373.467 66.4097 366.574 66.3829C359.62 66.3559 357.127 56.2174 357.141 41.0243L357.171 9.43413C357.173 7.93973 356.62 6.69223 355.882 6.68936L355.758 6.68888C355.02 6.68601 354.424 7.92904 354.422 9.42345L354.392 41.0136C354.375 59.237 357.543 71.5783 366.57 71.6133C375.534 71.6482 378.357 59.3302 378.374 41.1067L378.404 9.51661C378.405 8.0222 377.791 6.77447 377.073 6.77168Z" fill="#EBD1A0"/>
<path d="M418.266 7.63732L418.184 7.47096C417.569 6.59683 416.748 6.92572 416.316 8.16939C416.316 8.16939 409.178 29.4371 408.746 30.6392C407.882 33.085 408.066 33.4593 407.064 30.5496C406.593 29.1779 399.576 8.10436 399.576 8.10436C399.147 6.85735 398.327 6.52207 397.731 7.3915L397.608 7.55707C396.991 8.34339 396.867 10.0864 397.296 11.3334C397.296 11.3334 405.254 34.7353 405.766 36.2317C406.277 37.8111 406.542 39.3065 406.54 41.2991C406.539 43.2916 406.515 67.9078 406.515 67.9078C406.514 69.4023 407.108 70.6084 407.846 70.6113L407.928 70.6116C408.667 70.6145 409.263 69.4129 409.264 67.9185C409.264 67.9185 409.287 43.3853 409.289 41.3928C409.291 39.4833 409.601 37.658 410.115 36.0825C410.65 34.5902 418.611 11.4162 418.611 11.4162C419.043 10.1725 418.86 8.42834 418.266 7.63732Z" fill="#EBD1A0"/>
<path d="M445.464 33.8538C441.484 34.1704 440.115 27.7308 440.12 22.5004C440.126 16.2737 442.285 11.2177 445.567 11.2305C447.68 11.2387 448.889 13.5265 450.342 17.1021C451.427 19.7216 453.665 17.2811 452.725 13.8735C451.293 8.80353 448.711 6.01223 445.572 6.00003C440.834 5.98162 437.544 13.3994 437.535 22.4904C437.526 32.6191 441.171 39.5242 445.459 39.1673C449.378 38.7674 452.223 45.0467 452.216 52.5602C452.208 60.8625 449.618 66.7055 445.515 66.6896C442.786 66.679 441.148 63.5178 439.818 59.569C438.407 55.5784 435.942 58.8482 437.148 62.8796C438.825 68.4901 441.838 71.9058 445.51 71.92C451.028 71.9415 454.831 63.737 454.842 52.5704C454.854 39.4944 449.218 33.6193 445.464 33.8538Z" fill="#EBD1A0"/>
<path d="M487.666 8.86172C487.462 7.74011 486.929 7.1984 486.375 7.19625C485.862 7.19425 485.287 7.73167 485.081 8.85168L472.943 67.0451C472.695 68.331 472.981 69.9926 473.678 70.5349L473.76 70.6183C474.457 71.2437 475.237 70.541 475.525 69.2138C475.525 69.2138 478.617 54.4892 478.823 53.4522C479.049 52.4153 479.337 52.0428 479.87 52.0449C480.301 52.0466 489.922 52.0839 492.753 52.0949C493.287 52.097 493.615 52.4719 493.799 53.2613C493.962 54.0092 497.107 69.2976 497.107 69.2976C497.393 70.6271 498.172 71.3358 498.87 70.7158L498.952 70.6331C499.65 70.0962 500 68.4371 499.694 67.1491L487.666 8.86172ZM480.513 45.2395C480.636 44.6173 484.594 24.5826 485.933 18.7347C486.283 17.2417 486.447 17.2423 486.754 18.7379C487.959 24.5957 491.899 44.1629 492.124 45.0355C492.328 46.0741 492.246 46.4474 491.651 46.4451C491.077 46.4429 483.445 46.4132 481.024 46.4038C480.553 46.402 480.389 46.0277 480.513 45.2395Z" fill="#EBD1A0"/>
<path d="M534.078 65.4561L521.728 65.4081C521.338 65.4066 521.256 65.1157 521.257 64.3685L521.309 10.0717C521.31 8.57728 520.716 7.32963 519.978 7.32676L519.855 7.32628C519.116 7.32341 518.52 8.56644 518.519 10.0608L518.463 68.3428C518.462 69.8372 519.056 71.0433 519.794 71.0462L534.072 71.1016C534.79 71.1044 535.407 69.903 535.408 68.4086L535.409 68.1595C535.41 66.6651 534.796 65.4589 534.078 65.4561Z" fill="#EBD1A0"/>
<path d="M570.86 65.5992L557.28 65.5464C556.89 65.5449 556.808 65.254 556.809 64.5068L556.83 42.2982C556.831 41.5095 556.954 41.3439 557.385 41.3456L568.442 41.3886C569.16 41.3914 569.777 40.1899 569.778 38.6955L569.778 38.5295C569.78 37.0351 569.165 35.8288 568.447 35.8261L557.308 35.7828C556.918 35.7813 556.836 35.4904 556.837 34.6186L556.857 14.029C556.858 13.3233 556.981 13.0747 557.412 13.0764L570.09 13.1256C570.828 13.1285 571.445 11.9271 571.446 10.4327L571.446 10.2666C571.448 8.77221 570.834 7.52448 570.095 7.52161L555.386 7.46448C554.668 7.46169 554.092 8.70479 554.091 10.1992L554.036 68.4811C554.034 69.9755 554.608 71.1816 555.326 71.1844L570.855 71.2447C571.594 71.2476 572.21 70.0461 572.212 68.5517L572.212 68.3027C572.213 66.8083 571.599 65.602 570.86 65.5992Z" fill="#EBD1A0"/>
<path d="M317.819 122.649C317.595 121.486 317.082 120.986 316.529 120.984C315.995 120.982 315.441 121.478 315.235 122.639L303.096 180.791C302.828 182.118 303.134 183.78 303.832 184.281L303.913 184.364C304.59 184.99 305.37 184.287 305.679 183.001C305.679 183.001 308.75 168.235 308.976 167.198C309.182 166.161 309.49 165.83 310.003 165.832C310.434 165.834 320.055 165.871 322.907 165.882C323.42 165.884 323.768 166.218 323.932 167.007C324.116 167.797 327.24 183.085 327.24 183.085C327.546 184.373 328.325 185.082 329.023 184.462L329.105 184.379C329.783 183.884 330.133 182.224 329.847 180.895L317.819 122.649ZM310.666 158.985C310.79 158.405 314.727 138.328 316.087 132.481C316.416 131.029 316.601 131.03 316.907 132.484C318.092 138.342 322.053 157.909 322.257 158.781C322.482 159.82 322.4 160.193 321.784 160.191C321.23 160.189 313.599 160.159 311.178 160.15C310.706 160.148 310.542 159.774 310.666 158.985Z" fill="#EBD1A0"/>
<path d="M361.723 120.08C352.717 120.045 345.421 134.712 345.403 152.935C345.386 171.117 352.655 185.965 361.661 186C365.723 186.016 369.356 182.958 372.11 178.112C372.254 177.822 372.542 177.159 372.543 176.162C372.543 175.747 372.546 172.676 372.548 170.6C372.549 169.645 372.262 169.561 371.994 170.224C369.65 176.608 365.953 180.786 361.666 180.769C354.219 180.741 348.138 168.056 348.152 152.946C348.167 137.836 354.271 125.323 361.718 125.352C366.006 125.369 369.694 129.451 372.027 135.853C372.293 136.56 372.58 136.478 372.581 135.398C372.583 133.323 372.586 130.334 372.587 129.836C372.588 128.964 372.301 128.174 372.158 128.008C369.495 123.348 365.785 120.096 361.723 120.08Z" fill="#EBD1A0"/>
<path d="M405.047 122.988C404.823 121.825 404.31 121.325 403.736 121.323C403.223 121.321 402.669 121.817 402.442 122.978L390.324 181.13C390.056 182.457 390.362 184.119 391.039 184.62L391.141 184.703C391.818 185.328 392.598 184.626 392.907 183.34C392.907 183.34 395.978 168.574 396.204 167.537C396.41 166.5 396.718 166.169 397.231 166.171C397.662 166.173 407.283 166.21 410.135 166.221C410.648 166.223 410.996 166.557 411.16 167.346C411.344 168.136 414.468 183.424 414.468 183.424C414.774 184.712 415.553 185.421 416.231 184.801L416.333 184.718C417.011 184.222 417.361 182.563 417.055 181.234L405.047 122.988ZM397.894 159.324C398.018 158.744 401.955 138.667 403.294 132.819C403.644 131.368 403.829 131.369 404.115 132.823C405.32 138.68 409.281 158.248 409.485 159.12C409.71 160.159 409.628 160.532 409.012 160.53C408.458 160.528 400.827 160.498 398.406 160.489C397.934 160.487 397.75 160.113 397.894 159.324Z" fill="#EBD1A0"/>
<path d="M443.206 121.476L437.216 121.452C436.477 121.45 435.881 122.568 435.88 124.062L435.824 182.469C435.823 183.922 436.417 185.169 437.155 185.172L443.146 185.196C452.172 185.231 459.038 170.562 459.055 152.339C459.073 134.074 452.233 121.511 443.206 121.476ZM443.151 179.509C443.151 179.509 439.787 179.495 439.315 179.494C438.843 179.492 438.638 178.951 438.639 178.163C438.64 177.415 438.679 135.78 438.687 128.183C438.687 127.477 438.852 127.021 439.324 127.023C439.795 127.025 443.201 127.038 443.201 127.038C450.668 127.067 456.321 137.218 456.306 152.328C456.292 167.438 450.618 179.538 443.151 179.509Z" fill="#EBD1A0"/>
<path d="M495.566 179.712L481.985 179.66C481.595 179.658 481.514 179.409 481.514 178.62L481.535 156.453C481.536 155.664 481.659 155.499 482.09 155.5L493.127 155.543C493.866 155.546 494.482 154.303 494.484 152.809L494.484 152.643C494.485 151.148 493.871 149.942 493.132 149.939L482.013 149.896C481.624 149.894 481.542 149.645 481.543 148.773L481.562 128.142C481.563 127.478 481.686 127.188 482.117 127.19L494.795 127.239C495.534 127.242 496.15 126.04 496.152 124.546L496.152 124.38C496.153 122.885 495.539 121.679 494.8 121.676L480.091 121.619C479.373 121.616 478.798 122.818 478.796 124.312L478.741 182.636C478.74 184.089 479.313 185.336 480.031 185.339L495.56 185.399C496.299 185.402 496.895 184.159 496.897 182.706L496.897 182.416C496.898 180.921 496.304 179.715 495.566 179.712Z" fill="#EBD1A0"/>
<path d="M541.225 121.857C540.609 121.854 540.322 122.351 540.137 122.641C540.137 122.641 531.151 144.483 530.452 146.14C529.465 148.503 529.506 148.877 528.564 146.59C527.95 145.093 518.74 122.558 518.74 122.558C518.576 122.267 518.31 121.768 517.674 121.765C516.936 121.762 516.34 122.964 516.338 124.458L516.283 182.782C516.281 184.234 516.875 185.482 517.614 185.485L517.737 185.485C518.475 185.488 519.071 184.245 519.073 182.792C519.073 182.792 519.117 136.341 519.119 134.307C519.121 132.398 519.429 132.15 519.94 133.439C522.232 139.135 528.29 154.268 528.413 154.601C528.638 155.058 529.028 155.392 529.418 155.394C529.807 155.395 530.013 155.23 530.403 154.609C530.711 154.112 536.757 138.859 538.978 133.347C539.451 132.145 539.738 132.146 539.736 134.387C539.734 136.753 539.69 182.873 539.69 182.873C539.689 184.325 540.303 185.573 541.041 185.576L541.165 185.577C541.903 185.579 542.499 184.336 542.5 182.883L542.556 124.56C542.557 123.066 541.963 121.859 541.225 121.857Z" fill="#EBD1A0"/>
<path d="M582.417 122.722L582.336 122.514C581.721 121.64 580.9 122.011 580.468 123.213C580.468 123.213 573.329 144.481 572.897 145.724C572.033 148.17 572.218 148.503 571.215 145.635C570.745 144.221 563.749 123.148 563.749 123.148C563.319 121.942 562.499 121.566 561.883 122.435L561.759 122.642C561.143 123.387 561.018 125.13 561.448 126.377C561.448 126.377 569.406 149.779 569.918 151.275C570.449 152.855 570.694 154.35 570.692 156.343C570.69 158.377 570.667 182.993 570.667 182.993C570.666 184.446 571.28 185.693 571.998 185.696L572.1 185.697C572.818 185.699 573.435 184.457 573.436 183.004C573.436 183.004 573.46 158.47 573.462 156.436C573.463 154.527 573.752 152.701 574.287 151.126C574.802 149.634 582.763 126.46 582.763 126.46C583.195 125.216 583.012 123.472 582.417 122.722Z" fill="#EBD1A0"/>
<path d="M330.704 34.2797C332.573 32.0039 334.177 28.3571 334.182 22.753C334.193 11.2544 329.828 6.58816 323.838 6.56489L316.329 6.53572C315.591 6.53285 314.995 7.77588 314.993 9.27029L314.938 67.5522C314.937 69.0466 315.53 70.2527 316.269 70.2556L324.803 70.2888C330.588 70.3112 335.641 63.3569 335.652 51.9413C335.659 45.1335 333.346 39.5204 330.662 36.023C330.19 35.3985 330.109 35.0661 330.704 34.2797ZM331.413 22.7423C331.405 30.8785 328.245 32.0701 323.814 32.0529C323.814 32.0529 319.28 32.0352 318.644 32.0328C318.028 32.0304 317.762 31.3652 317.764 30.1198C317.768 25.6781 317.778 14.8436 317.779 13.9719C317.78 12.9341 318.006 12.2293 318.745 12.2322C319.463 12.235 324.037 12.2527 324.037 12.2527C328.407 12.2697 331.421 14.4815 331.413 22.7423ZM324.808 64.6432C324.808 64.6432 319.413 64.6223 318.777 64.6198C318.121 64.6172 317.732 63.91 317.733 62.6647C317.734 61.7099 317.749 45.313 317.755 39.6259C317.756 38.4221 317.982 37.7173 318.639 37.7198C319.233 37.7221 324.834 37.7439 324.834 37.7439C329.06 37.7603 332.911 43.5454 332.903 51.9307C332.895 60.3159 329.034 64.6596 324.808 64.6432Z" stroke="#EBD1A0" stroke-width="6"/>
<path d="M377.073 6.77168L376.929 6.77113C376.211 6.76834 375.595 8.01129 375.593 9.5057L375.563 41.0958C375.549 56.289 373.467 66.4097 366.574 66.3829C359.62 66.3559 357.127 56.2174 357.141 41.0243L357.171 9.43413C357.173 7.93973 356.62 6.69223 355.882 6.68936L355.758 6.68888C355.02 6.68601 354.424 7.92904 354.422 9.42345L354.392 41.0136C354.375 59.237 357.543 71.5783 366.57 71.6133C375.534 71.6482 378.357 59.3302 378.374 41.1067L378.404 9.51661C378.405 8.0222 377.791 6.77447 377.073 6.77168Z" stroke="#EBD1A0" stroke-width="6"/>
<path d="M418.266 7.63732L418.184 7.47096C417.569 6.59683 416.748 6.92572 416.316 8.16939C416.316 8.16939 409.178 29.4371 408.746 30.6392C407.882 33.085 408.066 33.4593 407.064 30.5496C406.593 29.1779 399.576 8.10436 399.576 8.10436C399.147 6.85735 398.327 6.52207 397.731 7.3915L397.608 7.55707C396.991 8.34339 396.867 10.0864 397.296 11.3334C397.296 11.3334 405.254 34.7353 405.766 36.2317C406.277 37.8111 406.542 39.3065 406.54 41.2991C406.539 43.2916 406.515 67.9078 406.515 67.9078C406.514 69.4023 407.108 70.6084 407.846 70.6113L407.928 70.6116C408.667 70.6145 409.263 69.4129 409.264 67.9185C409.264 67.9185 409.287 43.3853 409.289 41.3928C409.291 39.4833 409.601 37.658 410.115 36.0825C410.65 34.5902 418.611 11.4162 418.611 11.4162C419.043 10.1725 418.86 8.42834 418.266 7.63732Z" stroke="#EBD1A0" stroke-width="6"/>
<path d="M445.464 33.8538C441.484 34.1704 440.115 27.7308 440.12 22.5004C440.126 16.2737 442.285 11.2177 445.567 11.2305C447.68 11.2387 448.889 13.5265 450.342 17.1021C451.427 19.7216 453.665 17.2811 452.725 13.8735C451.293 8.80353 448.711 6.01223 445.572 6.00003C440.834 5.98162 437.544 13.3994 437.535 22.4904C437.526 32.6191 441.171 39.5242 445.459 39.1673C449.378 38.7674 452.223 45.0467 452.216 52.5602C452.208 60.8625 449.618 66.7055 445.515 66.6896C442.786 66.679 441.148 63.5178 439.818 59.569C438.407 55.5784 435.942 58.8482 437.148 62.8796C438.825 68.4901 441.838 71.9058 445.51 71.92C451.028 71.9415 454.831 63.737 454.842 52.5704C454.854 39.4944 449.218 33.6193 445.464 33.8538Z" stroke="#EBD1A0" stroke-width="6"/>
<path d="M487.666 8.86172C487.462 7.74011 486.929 7.1984 486.375 7.19625C485.862 7.19425 485.287 7.73167 485.081 8.85168L472.943 67.0451C472.695 68.331 472.981 69.9926 473.678 70.5349L473.76 70.6183C474.457 71.2437 475.237 70.541 475.525 69.2138C475.525 69.2138 478.617 54.4892 478.823 53.4522C479.049 52.4153 479.337 52.0428 479.87 52.0449C480.301 52.0466 489.922 52.0839 492.753 52.0949C493.287 52.097 493.615 52.4719 493.799 53.2613C493.962 54.0092 497.107 69.2976 497.107 69.2976C497.393 70.6271 498.172 71.3358 498.87 70.7158L498.952 70.6331C499.65 70.0962 500 68.4371 499.694 67.1491L487.666 8.86172ZM480.513 45.2395C480.636 44.6173 484.594 24.5826 485.933 18.7347C486.283 17.2417 486.447 17.2423 486.754 18.7379C487.959 24.5957 491.899 44.1629 492.124 45.0355C492.328 46.0741 492.246 46.4474 491.651 46.4451C491.077 46.4429 483.445 46.4132 481.024 46.4038C480.553 46.402 480.389 46.0277 480.513 45.2395Z" stroke="#EBD1A0" stroke-width="6"/>
<path d="M534.078 65.4561L521.728 65.4081C521.338 65.4066 521.256 65.1157 521.257 64.3685L521.309 10.0717C521.31 8.57728 520.716 7.32963 519.978 7.32676L519.855 7.32628C519.116 7.32341 518.52 8.56644 518.519 10.0608L518.463 68.3428C518.462 69.8372 519.056 71.0433 519.794 71.0462L534.072 71.1016C534.79 71.1044 535.407 69.903 535.408 68.4086L535.409 68.1595C535.41 66.6651 534.796 65.4589 534.078 65.4561Z" stroke="#EBD1A0" stroke-width="6"/>
<path d="M570.86 65.5992L557.28 65.5464C556.89 65.5449 556.808 65.254 556.809 64.5068L556.83 42.2982C556.831 41.5095 556.954 41.3439 557.385 41.3456L568.442 41.3886C569.16 41.3914 569.777 40.1899 569.778 38.6955L569.778 38.5295C569.78 37.0351 569.165 35.8288 568.447 35.8261L557.308 35.7828C556.918 35.7813 556.836 35.4904 556.837 34.6186L556.857 14.029C556.858 13.3233 556.981 13.0747 557.412 13.0764L570.09 13.1256C570.828 13.1285 571.445 11.9271 571.446 10.4327L571.446 10.2666C571.448 8.77221 570.834 7.52448 570.095 7.52161L555.386 7.46448C554.668 7.46169 554.092 8.70479 554.091 10.1992L554.036 68.4811C554.034 69.9755 554.608 71.1816 555.326 71.1844L570.855 71.2447C571.594 71.2476 572.21 70.0461 572.212 68.5517L572.212 68.3027C572.213 66.8083 571.599 65.602 570.86 65.5992Z" stroke="#EBD1A0" stroke-width="6"/>
<path d="M317.819 122.649C317.595 121.486 317.082 120.986 316.529 120.984C315.995 120.982 315.441 121.478 315.235 122.639L303.096 180.791C302.828 182.118 303.134 183.78 303.832 184.281L303.913 184.364C304.59 184.99 305.37 184.287 305.679 183.001C305.679 183.001 308.75 168.235 308.976 167.198C309.182 166.161 309.49 165.83 310.003 165.832C310.434 165.834 320.055 165.871 322.907 165.882C323.42 165.884 323.768 166.218 323.932 167.007C324.116 167.797 327.24 183.085 327.24 183.085C327.546 184.373 328.325 185.082 329.023 184.462L329.105 184.379C329.783 183.884 330.133 182.224 329.847 180.895L317.819 122.649ZM310.666 158.985C310.79 158.405 314.727 138.328 316.087 132.481C316.416 131.029 316.601 131.03 316.907 132.484C318.092 138.342 322.053 157.909 322.257 158.781C322.482 159.82 322.4 160.193 321.784 160.191C321.23 160.189 313.599 160.159 311.178 160.15C310.706 160.148 310.542 159.774 310.666 158.985Z" stroke="#EBD1A0" stroke-width="6"/>
<path d="M361.723 120.08C352.717 120.045 345.421 134.712 345.403 152.935C345.386 171.117 352.655 185.965 361.661 186C365.723 186.016 369.356 182.958 372.11 178.112C372.254 177.822 372.542 177.159 372.543 176.162C372.543 175.747 372.546 172.676 372.548 170.6C372.549 169.645 372.262 169.561 371.994 170.224C369.65 176.608 365.953 180.786 361.666 180.769C354.219 180.741 348.138 168.056 348.152 152.946C348.167 137.836 354.271 125.323 361.718 125.352C366.006 125.369 369.694 129.451 372.027 135.853C372.293 136.56 372.58 136.478 372.581 135.398C372.583 133.323 372.586 130.334 372.587 129.836C372.588 128.964 372.301 128.174 372.158 128.008C369.495 123.348 365.785 120.096 361.723 120.08Z" stroke="#EBD1A0" stroke-width="6"/>
<path d="M405.047 122.988C404.823 121.825 404.31 121.325 403.736 121.323C403.223 121.321 402.669 121.817 402.442 122.978L390.324 181.13C390.056 182.457 390.362 184.119 391.039 184.62L391.141 184.703C391.818 185.328 392.598 184.626 392.907 183.34C392.907 183.34 395.978 168.574 396.204 167.537C396.41 166.5 396.718 166.169 397.231 166.171C397.662 166.173 407.283 166.21 410.135 166.221C410.648 166.223 410.996 166.557 411.16 167.346C411.344 168.136 414.468 183.424 414.468 183.424C414.774 184.712 415.553 185.421 416.231 184.801L416.333 184.718C417.011 184.222 417.361 182.563 417.055 181.234L405.047 122.988ZM397.894 159.324C398.018 158.744 401.955 138.667 403.294 132.819C403.644 131.368 403.829 131.369 404.115 132.823C405.32 138.68 409.281 158.248 409.485 159.12C409.71 160.159 409.628 160.532 409.012 160.53C408.458 160.528 400.827 160.498 398.406 160.489C397.934 160.487 397.75 160.113 397.894 159.324Z" stroke="#EBD1A0" stroke-width="6"/>
<path d="M443.206 121.476L437.216 121.452C436.477 121.45 435.881 122.568 435.88 124.062L435.824 182.469C435.823 183.922 436.417 185.169 437.155 185.172L443.146 185.196C452.172 185.231 459.038 170.562 459.055 152.339C459.073 134.074 452.233 121.511 443.206 121.476ZM443.151 179.509C443.151 179.509 439.787 179.495 439.315 179.494C438.843 179.492 438.638 178.951 438.639 178.163C438.64 177.415 438.679 135.78 438.687 128.183C438.687 127.477 438.852 127.021 439.324 127.023C439.795 127.025 443.201 127.038 443.201 127.038C450.668 127.067 456.321 137.218 456.306 152.328C456.292 167.438 450.618 179.538 443.151 179.509Z" stroke="#EBD1A0" stroke-width="6"/>
<path d="M495.566 179.712L481.985 179.66C481.595 179.658 481.514 179.409 481.514 178.62L481.535 156.453C481.536 155.664 481.659 155.499 482.09 155.5L493.127 155.543C493.866 155.546 494.482 154.303 494.484 152.809L494.484 152.643C494.485 151.148 493.871 149.942 493.132 149.939L482.013 149.896C481.624 149.894 481.542 149.645 481.543 148.773L481.562 128.142C481.563 127.478 481.686 127.188 482.117 127.19L494.795 127.239C495.534 127.242 496.15 126.04 496.152 124.546L496.152 124.38C496.153 122.885 495.539 121.679 494.8 121.676L480.091 121.619C479.373 121.616 478.798 122.818 478.796 124.312L478.741 182.636C478.74 184.089 479.313 185.336 480.031 185.339L495.56 185.399C496.299 185.402 496.895 184.159 496.897 182.706L496.897 182.416C496.898 180.921 496.304 179.715 495.566 179.712Z" stroke="#EBD1A0" stroke-width="6"/>
<path d="M541.225 121.857C540.609 121.854 540.322 122.351 540.137 122.641C540.137 122.641 531.151 144.483 530.452 146.14C529.465 148.503 529.506 148.877 528.564 146.59C527.95 145.093 518.74 122.558 518.74 122.558C518.576 122.267 518.31 121.768 517.674 121.765C516.936 121.762 516.34 122.964 516.338 124.458L516.283 182.782C516.281 184.234 516.875 185.482 517.614 185.485L517.737 185.485C518.475 185.488 519.071 184.245 519.073 182.792C519.073 182.792 519.117 136.341 519.119 134.307C519.121 132.398 519.429 132.15 519.94 133.439C522.232 139.135 528.29 154.268 528.413 154.601C528.638 155.058 529.028 155.392 529.418 155.394C529.807 155.395 530.013 155.23 530.403 154.609C530.711 154.112 536.757 138.859 538.978 133.347C539.451 132.145 539.738 132.146 539.736 134.387C539.734 136.753 539.69 182.873 539.69 182.873C539.689 184.325 540.303 185.573 541.041 185.576L541.165 185.577C541.903 185.579 542.499 184.336 542.5 182.883L542.556 124.56C542.557 123.066 541.963 121.859 541.225 121.857Z" stroke="#EBD1A0" stroke-width="6"/>
<path d="M582.417 122.722L582.336 122.514C581.721 121.64 580.9 122.011 580.468 123.213C580.468 123.213 573.329 144.481 572.897 145.724C572.033 148.17 572.218 148.503 571.215 145.635C570.745 144.221 563.749 123.148 563.749 123.148C563.319 121.942 562.499 121.566 561.883 122.435L561.759 122.642C561.143 123.387 561.018 125.13 561.448 126.377C561.448 126.377 569.406 149.779 569.918 151.275C570.449 152.855 570.694 154.35 570.692 156.343C570.69 158.377 570.667 182.993 570.667 182.993C570.666 184.446 571.28 185.693 571.998 185.696L572.1 185.697C572.818 185.699 573.435 184.457 573.436 183.004C573.436 183.004 573.46 158.47 573.462 156.436C573.463 154.527 573.752 152.701 574.287 151.126C574.802 149.634 582.763 126.46 582.763 126.46C583.195 125.216 583.012 123.472 582.417 122.722Z" stroke="#EBD1A0" stroke-width="6"/>
</svg>
